<svg id="Layer_1" data-name="Layer 1" xmlns="http://www.w3.org/2000/svg" xmlns:xlink="http://www.w3.org/1999/xlink" viewBox="0 0 348.98 183.43"><defs><style>.cls-1{fill:#fff;}.cls-2{fill:url(#linear-gradient);}.cls-3{fill:#00a8ec;opacity:0.92;}.cls-4{fill:url(#linear-gradient-2);}.cls-5{fill:url(#linear-gradient-3);}.cls-6{fill:url(#linear-gradient-4);}.cls-7{fill:#002d74;}.cls-8{fill:url(#Nouvelle_nuance_de_dégradé_4);}.cls-9{fill:url(#linear-gradient-5);}.cls-10{fill:url(#Nouvelle_nuance_de_dégradé_4-2);}.cls-11{fill:url(#Nouvelle_nuance_de_dégradé_4-3);}.cls-12{fill:url(#Nouvelle_nuance_de_dégradé_4-4);}.cls-13{fill:url(#Nouvelle_nuance_de_dégradé_4-5);}.cls-14{fill:url(#Nouvelle_nuance_de_dégradé_4-6);}.cls-15{fill:url(#linear-gradient-6);}.cls-16{fill:url(#linear-gradient-7);}.cls-17{fill:url(#linear-gradient-8);}.cls-18{fill:url(#linear-gradient-9);}.cls-19{fill:url(#linear-gradient-10);}.cls-20{fill:url(#linear-gradient-11);}.cls-21{fill:url(#linear-gradient-12);}.cls-22{fill:url(#linear-gradient-13);}.cls-23{fill:url(#linear-gradient-14);}</style><linearGradient id="linear-gradient" x1="174.49" y1="0.67" x2="174.49" y2="183.07" gradientUnits="userSpaceOnUse"><stop offset="0" stop-color="#eac560"/><stop offset="0.23" stop-color="#f2d87e"/><stop offset="0.48" stop-color="#fdf0a3"/><stop offset="0.55" stop-color="#f2e395"/><stop offset="0.85" stop-color="#c1aa54"/><stop offset="1" stop-color="#ae933b"/></linearGradient><linearGradient id="linear-gradient-2" x1="-1078.99" y1="5.77" x2="-1078.99" y2="175.68" gradientTransform="translate(1252.99)" gradientUnits="userSpaceOnUse"><stop offset="0.2" stop-color="#3b2784"/><stop offset="0.63" stop-color="#3b2784" stop-opacity="0.4"/><stop offset="0.99" stop-color="#3b2784" stop-opacity="0"/></linearGradient><linearGradient id="linear-gradient-3" x1="174" y1="5.77" x2="174" y2="175.68" gradientUnits="userSpaceOnUse"><stop offset="0.2" stop-color="#253264"/><stop offset="0.63" stop-color="#3b2784" stop-opacity="0.4"/><stop offset="0.99" stop-color="#3b2784" stop-opacity="0"/></linearGradient><linearGradient id="linear-gradient-4" x1="221.11" y1="42.77" x2="267.53" y2="42.77" xlink:href="#linear-gradient"/><linearGradient id="Nouvelle_nuance_de_dégradé_4" x1="211.94" y1="79.03" x2="243.54" y2="79.03" gradientUnits="userSpaceOnUse"><stop offset="0.06" stop-color="#eac560"/><stop offset="0.31" stop-color="#fdeeb0"/><stop offset="0.4" stop-color="#fbecae"/><stop offset="0.45" stop-color="#f3e3a6"/><stop offset="0.49" stop-color="#e6d598"/><stop offset="0.52" stop-color="#d3c285"/><stop offset="0.55" stop-color="#baa86c"/><stop offset="0.58" stop-color="#9d894e"/><stop offset="0.61" stop-color="#7b652c"/><stop offset="0.65" stop-color="#7e682f"/><stop offset="0.68" stop-color="#897237"/><stop offset="0.71" stop-color="#9a8245"/><stop offset="0.74" stop-color="#b39959"/><stop offset="0.77" stop-color="#d2b672"/><stop offset="0.78" stop-color="#d8bb77"/><stop offset="1" stop-color="#a68f2b"/></linearGradient><linearGradient id="linear-gradient-5" x1="246.33" y1="79.03" x2="273.33" y2="79.03" xlink:href="#Nouvelle_nuance_de_dégradé_4"/><linearGradient id="Nouvelle_nuance_de_dégradé_4-2" x1="59.63" y1="71.6" x2="105.96" y2="71.6" xlink:href="#Nouvelle_nuance_de_dégradé_4"/><linearGradient id="Nouvelle_nuance_de_dégradé_4-3" x1="105" y1="79.21" x2="134.33" y2="79.21" xlink:href="#Nouvelle_nuance_de_dégradé_4"/><linearGradient id="Nouvelle_nuance_de_dégradé_4-4" x1="138.23" y1="79.03" x2="158.42" y2="79.03" xlink:href="#Nouvelle_nuance_de_dégradé_4"/><linearGradient id="Nouvelle_nuance_de_dégradé_4-5" x1="157.48" y1="79.03" x2="189.09" y2="79.03" xlink:href="#Nouvelle_nuance_de_dégradé_4"/><linearGradient id="Nouvelle_nuance_de_dégradé_4-6" x1="192.13" y1="78.75" x2="213.77" y2="78.75" xlink:href="#Nouvelle_nuance_de_dégradé_4"/><linearGradient id="linear-gradient-6" x1="63.81" y1="123.21" x2="111.72" y2="123.21" xlink:href="#linear-gradient"/><linearGradient id="linear-gradient-7" x1="-466.19" y1="124.2" x2="-451.58" y2="124.2" gradientTransform="translate(583.87)" gradientUnits="userSpaceOnUse"><stop offset="0.06" stop-color="#eac560"/><stop offset="0.43" stop-color="#fdeeb0"/><stop offset="0.55" stop-color="#e4cc88"/><stop offset="0.61" stop-color="#dabe78"/><stop offset="0.78" stop-color="#d8bb77"/><stop offset="1" stop-color="#a68f2b"/></linearGradient><linearGradient id="linear-gradient-8" x1="-476.05" y1="126.92" x2="-438.14" y2="126.92" gradientTransform="translate(583.87)" gradientUnits="userSpaceOnUse"><stop offset="0" stop-color="#eac560"/><stop offset="0.21" stop-color="#fdeeb0"/><stop offset="0.24" stop-color="#eedea1"/><stop offset="0.33" stop-color="#bdaa6f"/><stop offset="0.4" stop-color="#99854a"/><stop offset="0.47" stop-color="#836d34"/><stop offset="0.5" stop-color="#7b652c"/><stop offset="0.57" stop-color="#7e682f"/><stop offset="0.62" stop-color="#897237"/><stop offset="0.67" stop-color="#9a8245"/><stop offset="0.72" stop-color="#b39959"/><stop offset="0.77" stop-color="#d2b672"/><stop offset="0.78" stop-color="#d8bb77"/><stop offset="1" stop-color="#a68f2b"/></linearGradient><linearGradient id="linear-gradient-9" x1="-436.26" y1="126.9" x2="-405.37" y2="126.9" gradientTransform="translate(583.87)" gradientUnits="userSpaceOnUse"><stop offset="0.06" stop-color="#eac560"/><stop offset="0.31" stop-color="#fdeeb0"/><stop offset="0.36" stop-color="#eddda0"/><stop offset="0.46" stop-color="#c3b175"/><stop offset="0.59" stop-color="#806a31"/><stop offset="0.6" stop-color="#7b652c"/><stop offset="0.64" stop-color="#7e682f"/><stop offset="0.67" stop-color="#897237"/><stop offset="0.71" stop-color="#9a8245"/><stop offset="0.74" stop-color="#b39959"/><stop offset="0.77" stop-color="#d2b672"/><stop offset="0.78" stop-color="#d8bb77"/><stop offset="1" stop-color="#a68f2b"/></linearGradient><linearGradient id="linear-gradient-10" x1="-403.52" y1="126.9" x2="-394.43" y2="126.9" gradientTransform="translate(583.87)" gradientUnits="userSpaceOnUse"><stop offset="0.13" stop-color="#eac560"/><stop offset="0.78" stop-color="#d8bb77"/><stop offset="1" stop-color="#a68f2b"/></linearGradient><linearGradient id="linear-gradient-11" x1="-398.48" y1="139.83" x2="-383.1" y2="139.83" gradientTransform="translate(583.87)" gradientUnits="userSpaceOnUse"><stop offset="0.06" stop-color="#eac560"/><stop offset="0.38" stop-color="#fdeeb0"/><stop offset="0.47" stop-color="#fbecae"/><stop offset="0.52" stop-color="#f6e5a5"/><stop offset="0.56" stop-color="#edd897"/><stop offset="0.59" stop-color="#e0c684"/><stop offset="0.61" stop-color="#d8bb77"/><stop offset="1" stop-color="#a68f2b"/></linearGradient><linearGradient id="linear-gradient-12" x1="-335.04" y1="117.07" x2="-325.7" y2="117.07" gradientTransform="translate(583.87)" gradientUnits="userSpaceOnUse"><stop offset="0.06" stop-color="#eac560"/><stop offset="0.31" stop-color="#fdeeb0"/><stop offset="0.47" stop-color="#fbecae"/><stop offset="0.56" stop-color="#f6e5a5"/><stop offset="0.64" stop-color="#edd897"/><stop offset="0.7" stop-color="#e0c684"/><stop offset="0.73" stop-color="#d8bb77"/><stop offset="1" stop-color="#a68f2b"/></linearGradient><linearGradient id="linear-gradient-13" x1="-381.14" y1="139.83" x2="-325.49" y2="139.83" gradientTransform="translate(583.87)" gradientUnits="userSpaceOnUse"><stop offset="0.06" stop-color="#eac560"/><stop offset="0.31" stop-color="#fdeeb0"/><stop offset="0.52" stop-color="#816c32"/><stop offset="0.54" stop-color="#7b652c"/><stop offset="0.63" stop-color="#9c8447"/><stop offset="0.78" stop-color="#d8bb77"/><stop offset="1" stop-color="#a68f2b"/></linearGradient><linearGradient id="linear-gradient-14" x1="-353.22" y1="151.55" x2="-337.01" y2="151.55" xlink:href="#linear-gradient-11"/></defs><title>Nuralac plus Logo-1</title><path class="cls-1" d="M333.83,90.72c0,48.31-71.55,87.47-159.83,87.47S14.17,139,14.17,90.72,85.73,3.26,174,3.26,333.83,42.41,333.83,90.72Z"/><path class="cls-2" d="M349,86.92c0,48-78.13,96.51-174.49,96.51S0,134.92,0,86.92,78.12,0,174.49,0,349,38.91,349,86.92Z"/><path class="cls-1" d="M333.83,91c0,48.18-71.55,87.24-159.83,87.24S14.17,139.13,14.17,91,85.73,3.71,174,3.71,333.83,42.77,333.83,91Z"/><path class="cls-3" d="M174,175.68c-83.27,0-151-38.11-151-85S90.73,5.77,174,5.77s151,38.11,151,85S257.28,175.68,174,175.68Z"/><path class="cls-4" d="M174,175.68c-83.27,0-151-38.11-151-85S90.73,5.77,174,5.77s151,38.11,151,85S257.28,175.68,174,175.68Z"/><path class="cls-3" d="M174,175.68c-83.27,0-151-38.11-151-85S90.73,5.77,174,5.77s151,38.11,151,85S257.28,175.68,174,175.68Z"/><path class="cls-5" d="M174,175.68c-83.27,0-151-38.11-151-85S90.73,5.77,174,5.77s151,38.11,151,85S257.27,175.68,174,175.68Z"/><path class="cls-6" d="M267.35,39.55a4.18,4.18,0,0,1-2.55,3.58l-41.23,15a1.71,1.71,0,0,1-2.46-1.75L221.29,46a4.2,4.2,0,0,1,2.55-3.57l41.23-15a1.72,1.72,0,0,1,2.46,1.76Z"/><path class="cls-7" d="M225.75,45.14a2,2,0,0,1,1.45-1.83l3.23-1.17c2.68-1,4.65-.1,4.61,2.3s-2.13,4.72-4.64,5.63l-2,.74,0,2.75a2,2,0,0,1-1.41,1.81c-.78.28-1.35,0-1.33-.81Zm2.67,3.46,1.86-.68a2.81,2.81,0,0,0,1.9-2.46c0-1-.69-1.51-1.84-1.09l-1.87.67Z"/><path class="cls-7" d="M236.22,41.23a2,2,0,0,1,1.39-1.81c.79-.28,1.36,0,1.35.81l-.15,8.42,3.25-1.19c.94-.34,1.33.15,1.3.73A2,2,0,0,1,242,49.78l-4.57,1.66c-.9.32-1.42,0-1.4-.86Z"/><path class="cls-7" d="M244.2,38.32a2,2,0,0,1,1.4-1.8c.8-.29,1.36,0,1.34.81l-.09,5.85c0,1.54,1,2.37,2.77,1.74a4.41,4.41,0,0,0,2.84-3.78l.1-5.85A2,2,0,0,1,254,33.48c.79-.29,1.37,0,1.35.81l-.1,6c0,2.8-2.61,5.85-5.63,6.95s-5.52-.08-5.46-2.92Z"/><path class="cls-7" d="M264.84,31.09a1.93,1.93,0,0,1-1.25,1.68c-.75.27-1.33,0-2.42.38a2.12,2.12,0,0,0-1.52,1.64c0,1.72,6.1-1.6,6,2.73,0,2.39-2.23,4.66-4.75,5.58-1.4.51-4.43,1.31-4.41-.26a1.91,1.91,0,0,1,1.26-1.64c.85-.3,1.86,0,3.05-.46a2.51,2.51,0,0,0,1.89-2.12c0-2-6.09,1.43-6-2.45,0-2.34,2.17-4.57,4.59-5.45C262.31,30.34,264.86,29.77,264.84,31.09Z"/><path class="cls-1" d="M224.71,45.12a2,2,0,0,1,1.44-1.83l3.24-1.18c2.69-1,4.65-.09,4.61,2.31s-2.14,4.72-4.64,5.63l-2,.74,0,2.75a2,2,0,0,1-1.4,1.81c-.78.29-1.37,0-1.35-.81Zm2.66,3.46,1.86-.68a2.82,2.82,0,0,0,1.92-2.46c0-1-.7-1.51-1.85-1.09l-1.86.68Z"/><path class="cls-1" d="M235.18,41.2a2,2,0,0,1,1.39-1.8c.79-.28,1.37,0,1.35.81l-.14,8.42L241,47.44c.93-.34,1.32.16,1.29.73A2,2,0,0,1,241,49.75l-4.57,1.67c-.9.32-1.42,0-1.4-.86Z"/><path class="cls-1" d="M243.17,38.3a2,2,0,0,1,1.39-1.8c.79-.28,1.36,0,1.35.81l-.09,5.85c0,1.54,1,2.37,2.75,1.74a4.41,4.41,0,0,0,2.85-3.79l.1-5.85a2,2,0,0,1,1.39-1.79c.79-.3,1.37,0,1.36.8l-.11,6c0,2.81-2.61,5.85-5.62,7s-5.52-.07-5.47-2.93Z"/><path class="cls-1" d="M263.8,31.07a1.91,1.91,0,0,1-1.25,1.68c-.75.28-1.32,0-2.42.39a2.1,2.1,0,0,0-1.52,1.63c0,1.73,6.1-1.6,6,2.72,0,2.41-2.22,4.68-4.74,5.59-1.41.52-4.44,1.32-4.41-.25a1.86,1.86,0,0,1,1.24-1.64c.86-.31,1.87,0,3.06-.46a2.53,2.53,0,0,0,1.89-2.12c0-2-6.09,1.43-6-2.46,0-2.34,2.16-4.57,4.6-5.45C261.27,30.32,263.83,29.75,263.8,31.07Z"/><path class="cls-8" d="M226.67,96.6c-8.53,0-14.73-7.36-14.73-17.51,0-9.89,6.47-17.64,14.73-17.64a10.51,10.51,0,0,1,7.61,3,4.9,4.9,0,0,1,4.37-2.68c4.89,0,4.89,4.41,4.89,6.51V89.73c0,2.12,0,6.51-4.89,6.51a4.35,4.35,0,0,1-4.37-2.83A10.51,10.51,0,0,1,226.67,96.6Zm1.16-25.49c-4.55,0-5.75,5.22-5.75,8,0,3.9,2,7.86,5.75,7.86s5.58-4,5.58-7.86S231.5,71.11,227.83,71.11Z"/><path class="cls-1" d="M238.65,63.53a3.2,3.2,0,0,0-3.17,2.85l-.25,2.26-1.29-1.87a8.61,8.61,0,0,0-7.27-3.59c-7.29,0-13,7-13,15.91,0,9.15,5.46,15.79,13,15.79A9.07,9.07,0,0,0,234,91.17l1.06-1.3.41,1.62c.57,2.24,1.41,3,3.19,3,2.93,0,3.17-2.08,3.17-4.79V68.32C241.82,65.61,241.58,63.53,238.65,63.53ZM227.83,88.66c-4.91,0-7.48-4.81-7.48-9.57s2.34-9.7,7.48-9.7c4.8,0,7.31,4.88,7.31,9.7S232.63,88.66,227.83,88.66Z"/><path class="cls-9" d="M262.22,96.6c-9.06,0-15.89-7.52-15.89-17.51,0-8.67,5.94-17.64,15.89-17.64,4.3,0,11.11,1.73,11.11,6.33,0,2-1.44,5-4.07,5A8.81,8.81,0,0,1,266,72a9.12,9.12,0,0,0-3.4-.86c-4.86,0-6.17,5-6.17,8,0,3.81,2.16,7.86,6.17,7.86a12.44,12.44,0,0,0,3.84-1.1,7.76,7.76,0,0,1,2.37-.71,4.63,4.63,0,0,1,4.49,4.65C273.33,94.88,265.7,96.6,262.22,96.6Z"/><path class="cls-1" d="M268.85,86.86a10,10,0,0,0-1.75.6,13.9,13.9,0,0,1-4.47,1.2c-5.13,0-7.89-4.93-7.89-9.57s2.47-9.7,7.89-9.7a10.62,10.62,0,0,1,4,1,7.27,7.27,0,0,0,2.59.71c1.44,0,2.36-2,2.36-3.3,0-3.44-6.45-4.6-9.4-4.6-8.87,0-14.16,8.08-14.16,15.91,0,9,6.09,15.79,14.16,15.79,3.17,0,9.4-1.53,9.4-5.09A2.89,2.89,0,0,0,268.85,86.86Z"/><path class="cls-10" d="M94.67,97.92A6.85,6.85,0,0,1,90,95.52l-19.25-25V92.16c0,3.5-2.18,5.76-5.56,5.76a5.37,5.37,0,0,1-5.59-5.76V55.64a5.37,5.37,0,0,1,5.59-5.75,6.69,6.69,0,0,1,4.66,2.43L89.1,77.8V66.43c0-17.51,11.06-21.09,14-21.09a13,13,0,0,1,1.65-.05l1.19.11-1.15,2.43-.43.8c-1.34,2.45-4.12,7.56-4.12,17.8V92.16A5.37,5.37,0,0,1,94.67,97.92Z"/><path class="cls-1" d="M90.82,66.43V83L68.49,53.32a5.15,5.15,0,0,0-3.27-1.72c-2.39,0-3.87,1.55-3.87,4V92.16c0,2.5,1.48,4,3.87,4s3.84-1.51,3.84-4V65.46l22.32,29a5.29,5.29,0,0,0,3.29,1.75c2.38,0,3.86-1.55,3.86-4V66.43c0-10.68,2.93-16.06,4.34-18.63.14-.25.28-.51.39-.73h-.14C100.52,47.07,90.82,50.35,90.82,66.43Z"/><path class="cls-11" d="M119.67,96.6c-9,0-14.67-5.17-14.67-13.49V67.49c0-3.35,2.08-5.68,5.07-5.68s5.06,2.33,5.06,5.68V82.94a4.54,4.54,0,1,0,9.07,0V67.49c0-3.35,2.08-5.68,5.06-5.68s5.07,2.33,5.07,5.68V83.11C134.33,91.43,128.71,96.6,119.67,96.6Z"/><path class="cls-1" d="M129.26,63.53c-2,0-3.34,1.59-3.34,4V82.94a6.26,6.26,0,1,1-12.51,0V67.49c0-2.37-1.34-4-3.34-4s-3.35,1.59-3.35,4V83.11c0,7.37,4.84,11.77,13,11.77s12.94-4.4,12.94-11.77V67.49C132.61,65.12,131.27,63.53,129.26,63.53Z"/><path class="cls-12" d="M143.29,96.24c-3,0-5.06-2.33-5.06-5.67V67a5,5,0,0,1,5.18-5.2c2.36,0,3.94.87,4.6,2.48a7.15,7.15,0,0,1,5.47-2.48c2.45,0,4.94,1.89,4.94,5.5,0,2.78-2,3.57-3.93,4.32-.51.2-1,.41-1.57.66l-.18.09c-2.72,1.31-4.38,2.24-4.38,4.9V90.57C148.36,93.91,146.27,96.24,143.29,96.24Z"/><path class="cls-1" d="M153.48,63.53c-2.21,0-3.86,1.11-5.18,3.22s-1.65,2.69-1.65,2.69V66.28c0-1.28-.39-2.75-3.24-2.75A3.32,3.32,0,0,0,140,67V90.57c0,2.37,1.34,4,3.34,4s3.34-1.58,3.34-4V77.28c0-3.88,2.85-5.24,5.37-6.45l.18-.09c.58-.28,1.14-.49,1.68-.71,2-.77,2.84-1.17,2.84-2.72C156.7,64.7,155.08,63.53,153.48,63.53Z"/><path class="cls-13" d="M172.22,96.6c-8.54,0-14.74-7.36-14.74-17.51,0-9.89,6.47-17.64,14.74-17.64a10.49,10.49,0,0,1,7.6,3,4.92,4.92,0,0,1,4.38-2.68c4.89,0,4.89,4.41,4.89,6.51V89.73c0,2.12,0,6.51-4.89,6.51a4.34,4.34,0,0,1-4.37-2.84A10.52,10.52,0,0,1,172.22,96.6Zm1.16-25.49c-4.55,0-5.76,5.22-5.76,8,0,3.9,2,7.86,5.76,7.86S179,83,179,79.09,177,71.11,173.38,71.11Z"/><path class="cls-1" d="M184.2,63.53A3.19,3.19,0,0,0,181,66.38l-.25,2.26-1.29-1.87a8.62,8.62,0,0,0-7.27-3.59c-7.3,0-13,7-13,15.91,0,9.15,5.46,15.79,13,15.79a9.06,9.06,0,0,0,7.31-3.71l1.06-1.3.42,1.62c.57,2.24,1.4,3,3.19,3,2.93,0,3.17-2.08,3.17-4.79V68.32C187.37,65.61,187.13,63.53,184.2,63.53ZM173.38,88.66c-4.92,0-7.48-4.81-7.48-9.57s2.33-9.7,7.48-9.7c4.8,0,7.3,4.88,7.3,9.7S178.18,88.66,173.38,88.66Z"/><path class="cls-14" d="M197.93,96.28c-.28,0-.53,0-.78,0H197c-2.84-.13-4.82-2.44-4.82-5.66V66.9c0-3.35,2.07-5.68,5.06-5.68s5.06,2.33,5.06,5.68V86.17h5.84c3.35,0,5.68,2.08,5.68,5.06s-2.33,5-5.68,5Z"/><path class="cls-1" d="M208.09,87.88h-7.56v-21c0-2.37-1.35-4-3.34-4s-3.34,1.59-3.34,4V90.57c0,2.32,1.29,3.88,3.22,3.94h.14q.33,0,.72,0h10.16c2.36,0,4-1.33,4-3.32S210.45,87.88,208.09,87.88Z"/><path class="cls-15" d="M111.51,120.51a3.35,3.35,0,0,1-2,2.86L65.78,139.25a1.37,1.37,0,0,1-2-1.4L64,125.91a3.34,3.34,0,0,1,2-2.85l43.7-15.89a1.36,1.36,0,0,1,2,1.4Z"/><path class="cls-7" d="M83.43,129.52l0,.12c.58,1.6-1.13,3.27-3.17,4s-4.45.57-5-1l-2.36-6.48,2.74-1L78,131.6c.21.58,1.23.48,1.74.3s1.19-.72,1-1.29l-2.35-6.45,2.74-1,1,2.79c.64-2.21,1.61-3.87,3.55-4.57a3.44,3.44,0,0,1,4.54,2.1l0,.08a3.88,3.88,0,0,1,.17,1.76l1.55-.56.53,1.47Zm3.42-2.9a1.76,1.76,0,0,0,.7-2.3l0-.11c-.38-1.06-1.21-1.49-1.9-1.24-1,.39-2.15,1.74-2.73,5.09Z"/><path class="cls-7" d="M98.35,124.12a4.82,4.82,0,0,1-2.69.36A5.62,5.62,0,0,1,93.21,126l-.85.3-.53-1.47,1.58-.57a1.32,1.32,0,0,0,.62-.41l-2.71-7.46,2.73-1,2.54,7c.15.41.57.54,1.2.32l.94-.34.53,1.47Z"/><path class="cls-7" d="M98.58,122.38l1.55-.56c.59-.21.7-.59.59-.89l-1.55-4.28,2.72-1,1.51,4.13c.58,1.62-.39,2.66-2.67,3.49l-1.61.58Zm5,1.92c-.16-.45-.81-.61-1.45-.39s-1,.77-.85,1.22a1.09,1.09,0,0,0,1.44.39C103.38,125.3,103.77,124.75,103.61,124.3Z"/><path class="cls-1" d="M84.11,127.62l0,.1c.58,1.62-1.14,3.28-3.17,4s-4.44.57-5-1l-2.36-6.48,2.74-1,2.35,6.45c.21.58,1.23.48,1.73.29s1.19-.71,1-1.28l-2.34-6.45,2.73-1,1,2.78c.64-2.2,1.6-3.86,3.56-4.56a3.44,3.44,0,0,1,4.53,2.09l0,.09a3.86,3.86,0,0,1,.18,1.75l1.54-.55.54,1.46Zm3.43-2.91a1.76,1.76,0,0,0,.69-2.3l0-.11c-.38-1-1.22-1.5-1.9-1.24-1,.39-2.15,1.73-2.73,5.1Z"/><path class="cls-1" d="M99,122.21a4.92,4.92,0,0,1-2.69.36,5.62,5.62,0,0,1-2.45,1.51l-.84.3-.54-1.47,1.58-.57a1.33,1.33,0,0,0,.62-.42L92,114.46l2.73-1,2.55,7c.14.41.57.54,1.18.32l1-.35.53,1.47Z"/><path class="cls-1" d="M99.26,120.47l1.55-.56c.59-.22.7-.59.58-.9l-1.55-4.28,2.73-1,1.51,4.12c.58,1.62-.38,2.66-2.66,3.48l-1.62.59Zm5,1.91c-.16-.44-.81-.61-1.45-.38s-1,.77-.85,1.22.81.62,1.44.39S104.45,122.84,104.29,122.38Z"/><path class="cls-16" d="M121.31,132.91a3.43,3.43,0,0,1-2.68-1,3.73,3.73,0,0,1-.94-3v-2a1.77,1.77,0,0,1,1.77-1.77h1L119.38,124a4.21,4.21,0,0,1-.95-1.67,7.67,7.67,0,0,1-.26-1.21,5.93,5.93,0,0,1,.06-1.62,5.7,5.7,0,0,1,.63-1.76,4.81,4.81,0,0,1,1.38-1.43,5.1,5.1,0,0,1,2.09-.78h6.34a3.51,3.51,0,0,1,2.75,1,3.82,3.82,0,0,1,.84,3v2a1.75,1.75,0,0,1-1.77,1.75h-.72l.54.55c.35.48.75.91,1.08,1.38a4.45,4.45,0,0,1,.72,1.52,5.44,5.44,0,0,1,.09,1.65,4.92,4.92,0,0,1-.4,1.5,5.11,5.11,0,0,1-.81,1.36,4.62,4.62,0,0,1-1.55,1.26,4.47,4.47,0,0,1-1.93.44Z"/><path class="cls-1" d="M121.31,131.16h6.06a2.58,2.58,0,0,0,1.28-.28,3.32,3.32,0,0,0,1.52-1.7,4.93,4.93,0,0,0,.28-1,2.67,2.67,0,0,0-.08-1,2.37,2.37,0,0,0-.42-.93c-.3-.4-.64-.82-1-1.21s-.72-.79-1.12-1.2l-1.12-1.16c-.38-.38-.73-.74-1.08-1.13h4.84v-2.14c.14-1.47-.46-2.17-1.84-2.1h-6.06a3.23,3.23,0,0,0-1.35.47,3.29,3.29,0,0,0-.86.89,3.81,3.81,0,0,0-.41,1.13,3.34,3.34,0,0,0,0,1.17,5.64,5.64,0,0,0,.18.9,2.39,2.39,0,0,0,.56.93l3.86,4.11h-5.07V129C119.38,130.47,120,131.17,121.31,131.16Z"/><path class="cls-17" d="M138.73,146.15h-27a3.75,3.75,0,0,1-2.83-1.05,4.46,4.46,0,0,1-1-3.5v-2.75a1.76,1.76,0,0,1,1.76-1.77h27.07V112.57a.69.69,0,0,1,0-.25,6,6,0,0,1,1.34-3.14,4.47,4.47,0,0,1,3.14-1.53H144a1.76,1.76,0,0,1,1.76,1.76v27.14a15,15,0,0,1-.38,3.77,9.55,9.55,0,0,1-1.34,3.06,6.49,6.49,0,0,1-2.24,2.1,5.42,5.42,0,0,1-2.73.7Z"/><path class="cls-1" d="M139.36,110.34a4.14,4.14,0,0,0-.93,2.23v26.28H109.59v2.86c-.09,1.83.62,2.76,2.12,2.71h27.11a3.81,3.81,0,0,0,2.1-.48,5,5,0,0,0,1.66-1.54,7.8,7.8,0,0,0,1-2.5,12.52,12.52,0,0,0,.36-3.35V109.41h-2.66A2.68,2.68,0,0,0,139.36,110.34Z"/><path class="cls-18" d="M149.34,146.15a1.72,1.72,0,0,1-1.73-1.73v-2.93a4.77,4.77,0,0,1,2.87-3.56,9.64,9.64,0,0,1,3-.72V112.62c0-.06,0-.14,0-.22a5.67,5.67,0,0,1,.46-1.66,7.44,7.44,0,0,1,.88-1.46,4.68,4.68,0,0,1,1.37-1.11,4.53,4.53,0,0,1,1.83-.52h2.77a1.74,1.74,0,0,1,1.74,1.76v27.67h6.87V109.41a1.77,1.77,0,0,1,1.77-1.76h5.52a1.77,1.77,0,0,1,1.78,1.76v29.64c-.16,4.42-2.5,6.91-6.65,7.1H149.34Z"/><path class="cls-1" d="M171.2,138.85H160.82V109.41h-2.66a2.37,2.37,0,0,0-1.09.3,3.15,3.15,0,0,0-.85.7,4.32,4.32,0,0,0-1,2.21V139a8.88,8.88,0,0,0-4.07.58,3.06,3.06,0,0,0-1.85,2.27v2.6h22.43c3.17-.17,4.83-2,4.95-5.37V109.41H171.2Z"/><path class="cls-19" d="M182.11,146.15a1.76,1.76,0,0,1-1.77-1.73v-31.8a1.41,1.41,0,0,1,0-.4,10.28,10.28,0,0,1,.51-1.48,6.13,6.13,0,0,1,.82-1.41,5.24,5.24,0,0,1,1.35-1.16,4.58,4.58,0,0,1,1.85-.52h2.74a1.77,1.77,0,0,1,1.78,1.76v31.85a.69.69,0,0,1,0,.26,6.17,6.17,0,0,1-1.32,3.09,4.59,4.59,0,0,1-3.12,1.54h-2.86Z"/><path class="cls-1" d="M187.66,109.41H185a2.28,2.28,0,0,0-1.05.3,3.26,3.26,0,0,0-.84.7,4.82,4.82,0,0,0-.58,1,8.41,8.41,0,0,0-.42,1.19v31.8h2.69a2.94,2.94,0,0,0,2-1,4.45,4.45,0,0,0,.88-2.19Z"/><path class="cls-20" d="M187.16,157.37a1.8,1.8,0,0,1-1.67-1.17,1.75,1.75,0,0,1,.52-1.94c.71-.6,1.37-1.19,2-1.83a15.83,15.83,0,0,0,1.56-1.81,12,12,0,0,0,1.08-1.92,10.18,10.18,0,0,0,.62-2.07V129.71c-.05-5,2.5-6.76,4.61-7.35a1.91,1.91,0,0,1,.48-.06H199a1.79,1.79,0,0,1,1.78,1.76V141a41.44,41.44,0,0,1-.23,4.67,16.12,16.12,0,0,1-1,4.2,14.68,14.68,0,0,1-2.11,3.71,21.14,21.14,0,0,1-3.57,3.46,1.73,1.73,0,0,1-1.08.38Z"/><path class="cls-1" d="M193,129.71v17a11.56,11.56,0,0,1-.77,2.64,11.14,11.14,0,0,1-1.26,2.26,17.37,17.37,0,0,1-1.73,2c-.66.64-1.36,1.29-2.11,1.91h5.64a18.13,18.13,0,0,0,3.24-3.17,12.28,12.28,0,0,0,1.87-3.26,15,15,0,0,0,.89-3.72A43.87,43.87,0,0,0,199,141V124.06h-2.62C194.14,124.69,193,126.56,193,129.71Z"/><path class="cls-21" d="M253.51,121.71a4.57,4.57,0,0,1-1.81-.36,4.17,4.17,0,0,1-1.47-.94,4.12,4.12,0,0,1-1-1.48,4.42,4.42,0,0,1-.37-1.84,4.47,4.47,0,0,1,1.38-3.32,4.53,4.53,0,0,1,3.3-1.35,4.76,4.76,0,0,1,3.29,1.31,4.63,4.63,0,0,1,1.37,3.36,4.53,4.53,0,0,1-.4,1.88,4.76,4.76,0,0,1-1,1.44,5.14,5.14,0,0,1-1.43.94A4.73,4.73,0,0,1,253.51,121.71Z"/><path class="cls-1" d="M251.43,119.13a2.73,2.73,0,0,0,.93.61,2.63,2.63,0,0,0,1.15.23,2.46,2.46,0,0,0,1.11-.23,2.73,2.73,0,0,0,.93-.61,3.2,3.2,0,0,0,.62-.9,2.62,2.62,0,0,0,.25-1.14,2.75,2.75,0,0,0-.86-2.07,3,3,0,0,0-4.13,0,2.73,2.73,0,0,0-.84,2.07,2.93,2.93,0,0,0,.21,1.14A3.23,3.23,0,0,0,251.43,119.13Z"/><path class="cls-22" d="M214.33,157.37a1.81,1.81,0,0,1-1.69-1.2,1.75,1.75,0,0,1,.57-1.93,20.51,20.51,0,0,0,2-1.87,16.16,16.16,0,0,0,3.14-4.94c.12-.42.26-.8.41-1.28H206.7a3.94,3.94,0,0,1-3-1.1,4.41,4.41,0,0,1-1-3.4V127.31c0-.06,0-.16,0-.26a6.28,6.28,0,0,1,1.42-3.25,4.62,4.62,0,0,1,3.2-1.5h18.76a1.79,1.79,0,0,1,1.78,1.76v13h6.14V127.9a5.59,5.59,0,0,1,1-3.56,4.71,4.71,0,0,1,3.4-2h2.87a1.77,1.77,0,0,1,1.75,1.76v13h6.2v-9.27a5.27,5.27,0,0,1,.95-3.52,4.72,4.72,0,0,1,3.63-2h2.76a1.75,1.75,0,0,1,1.75,1.76v13.75a10.49,10.49,0,0,1-.45,3.35,7.8,7.8,0,0,1-1.42,2.66,6.26,6.26,0,0,1-2.27,1.77,6.08,6.08,0,0,1-2.64.56H228a19.31,19.31,0,0,1-2.09,5.36,20,20,0,0,1-4.77,5.48,1.94,1.94,0,0,1-1.13.38Zm4.48-20.29v-5.87h-6.87v5.87Z"/><path class="cls-1" d="M256.62,124.06H254a2.82,2.82,0,0,0-2.28,1.21,3.78,3.78,0,0,0-.66,2.54v11h-9.71V124.06H238.7a3,3,0,0,0-2.2,1.27,4.09,4.09,0,0,0-.66,2.57v10.95h-9.7V124.06H207.51a2.8,2.8,0,0,0-2,.93,4.6,4.6,0,0,0-1,2.32v14.44c-.11,1.82.66,2.72,2.21,2.67H221a16.93,16.93,0,0,1-1,3.65,19.36,19.36,0,0,1-1.52,3,21.47,21.47,0,0,1-1.95,2.49,27.27,27.27,0,0,1-2.19,2H220a17.74,17.74,0,0,0,4.38-5,18.7,18.7,0,0,0,2.16-6.22h24.93a4.93,4.93,0,0,0,2-.41,5,5,0,0,0,1.63-1.31,6.08,6.08,0,0,0,1.12-2.08,9.81,9.81,0,0,0,.37-2.81Zm-36,14.79H210.14v-9.39h10.44Z"/><path class="cls-23" d="M246.48,149.7a4.59,4.59,0,0,0-1-1.47,3.85,3.85,0,0,0-1.5-1,4.88,4.88,0,0,0-3.68,0,4.17,4.17,0,0,0-1.48,1l-.11.12-.11-.13a4.22,4.22,0,0,0-1.51-1,4.68,4.68,0,0,0-3.6,0,4.36,4.36,0,0,0-1.5,1,5,5,0,0,0-1,1.47,4.49,4.49,0,0,0-.37,1.82,4.6,4.6,0,0,0,.37,1.85,4.48,4.48,0,0,0,1,1.51,4.38,4.38,0,0,0,1.48,1,4.79,4.79,0,0,0,1.8.37,5.15,5.15,0,0,0,1.8-.35,4.88,4.88,0,0,0,1.51-1,1.53,1.53,0,0,1,.11-.16.32.32,0,0,0,.12.14,4.67,4.67,0,0,0,6.63,0,4.63,4.63,0,0,0,1.36-3.34A4.69,4.69,0,0,0,246.48,149.7Z"/><path class="cls-1" d="M244.24,149.47a2.45,2.45,0,0,0-.92-.62,2.88,2.88,0,0,0-1.15-.24,3,3,0,0,0-1.15.24,2.82,2.82,0,0,0-.92.62,2.77,2.77,0,0,0-.6.92,3,3,0,0,0-.22,1.12,2.86,2.86,0,0,0,.82,2.11,2.95,2.95,0,0,0,4.14,0,2.85,2.85,0,0,0,.85-2.11,3.25,3.25,0,0,0-.24-1.12A2.64,2.64,0,0,0,244.24,149.47Z"/><path class="cls-1" d="M237.37,149.47a2.61,2.61,0,0,0-.94-.62,2.76,2.76,0,0,0-1.11-.24,2.93,2.93,0,0,0-1.12.24,3,3,0,0,0-.94.62,3.4,3.4,0,0,0-.63.92,2.68,2.68,0,0,0-.23,1.12,2.83,2.83,0,0,0,.23,1.16,3.74,3.74,0,0,0,.63,1,3.65,3.65,0,0,0,.94.62,2.91,2.91,0,0,0,1.12.23,2.76,2.76,0,0,0,1.11-.23,3.08,3.08,0,0,0,.94-.62,2.63,2.63,0,0,0,.63-1,2.55,2.55,0,0,0,.25-1.16,2.42,2.42,0,0,0-.25-1.12A2.44,2.44,0,0,0,237.37,149.47Z"/></svg>